<mxfile host="app.diagrams.net" modified="2022-10-23T17:28:44.559Z" agent="5.0 (Windows NT 10.0; Win64; x64) AppleWebKit/537.36 (KHTML, like Gecko) Chrome/106.0.0.0 Safari/537.36" etag="E49xgzbIAdnrTww0UZP5" version="20.2.3" type="github">
  <diagram id="isPj6zVwuAPjsHQzDBLP" name="PÃ¡gina-1">
    <mxGraphModel dx="1108" dy="486" grid="1" gridSize="10" guides="1" tooltips="1" connect="1" arrows="1" fold="1" page="1" pageScale="1" pageWidth="827" pageHeight="1169" math="0" shadow="0">
      <root>
        <mxCell id="0" />
        <mxCell id="1" parent="0" />
        <mxCell id="UHWpMGjwR8gtUZ2uqzkP-5" value="Actor" style="shape=umlActor;verticalLabelPosition=bottom;verticalAlign=top;html=1;" vertex="1" parent="1">
          <mxGeometry x="160" y="120" width="30" height="60" as="geometry" />
        </mxCell>
        <mxCell id="UHWpMGjwR8gtUZ2uqzkP-6" value="Actor" style="shape=umlActor;verticalLabelPosition=bottom;verticalAlign=top;html=1;" vertex="1" parent="1">
          <mxGeometry x="160" y="270" width="30" height="60" as="geometry" />
        </mxCell>
        <mxCell id="UHWpMGjwR8gtUZ2uqzkP-7" value="Object" style="html=1;" vertex="1" parent="1">
          <mxGeometry x="304" y="120" width="216" height="240" as="geometry" />
        </mxCell>
      </root>
    </mxGraphModel>
  </diagram>
</mxfile>
